<?xml version="1.0" standalone="no"?><!-- Generator: Gravit.io --><svg xmlns="http://www.w3.org/2000/svg" xmlns:xlink="http://www.w3.org/1999/xlink" style="isolation:isolate" viewBox="0 0 200 200" width="200" height="200"><defs><clipPath id="_clipPath_q7zgaxC0tr3sHfGxKPZjJ0ExpKA8KRq7"><rect width="200" height="200"/></clipPath></defs><g clip-path="url(#_clipPath_q7zgaxC0tr3sHfGxKPZjJ0ExpKA8KRq7)"><rect width="200" height="200" style="fill:rgb(0,255,110)"/><path d="M 24 0 L 176 0 C 189.246 0 200 10.754 200 24 L 200 176 C 200 189.246 189.246 200 176 200 L 24 200 C 10.754 200 0 189.246 0 176 L 0 24 C 0 10.754 10.754 0 24 0 Z" style="stroke:none;fill:#4FC099;stroke-miterlimit:10;"/><defs><filter id="EeYT1oOr9TRp4qtqUL30amoOVYLzn8uS" x="-200%" y="-200%" width="400%" height="400%"><feGaussianBlur xmlns="http://www.w3.org/2000/svg" stdDeviation="2.9625902533589294"/></filter></defs><g opacity="0.71" filter="url(#EeYT1oOr9TRp4qtqUL30amoOVYLzn8uS)"><path d=" M 57.5 184.029 C 57.5 182.082 73.631 180.502 93.5 180.502 C 113.369 180.502 129.5 182.082 129.5 184.029 C 129.5 185.975 113.369 187.556 93.5 187.556 C 73.631 187.556 57.5 185.975 57.5 184.029 Z " fill="rgb(89,88,88)" fill-opacity="0.54"/></g><defs><filter id="pidG4xcv2Y6dsTvENuvwQCJrZBU6tH8e" x="-200%" y="-200%" width="400%" height="400%"><feGaussianBlur xmlns="http://www.w3.org/2000/svg" stdDeviation="1.1592744469665377"/></filter></defs><g filter="url(#pidG4xcv2Y6dsTvENuvwQCJrZBU6tH8e)"><path d=" M 83 184.029 C 83 183.461 87.705 183 93.5 183 C 99.295 183 104 183.461 104 184.029 C 104 184.597 99.295 185.058 93.5 185.058 C 87.705 185.058 83 184.597 83 184.029 Z " fill="rgb(89,88,88)" fill-opacity="0.54"/></g><g id="Group"><path d=" M 68 23.377 L 145 28.377 L 140 102.377 L 92 108.377 L 103.841 163.179 L 94 185.058 L 68 108.377 L 68 23.377 Z " fill="rgb(255,255,255)"/><g id="Group"><path d=" M 113.371 33.968 C 113.371 21.625 123.391 11.605 135.734 11.605 C 148.077 11.605 158.098 21.625 158.098 33.968 C 158.098 46.311 148.077 56.331 135.734 56.331 C 123.391 56.331 113.371 46.311 113.371 33.968 Z " fill="rgb(231,76,60)"/><g transform="matrix(0.771,-0.207,0.207,0.771,111,1.103)"><text transform="matrix(1,0,0,1,0,63.062)" style="font-family:&quot;Open Sans&quot;;font-weight:400;font-size:59px;font-style:normal;fill:#ffffff;stroke:none;">e</text></g></g></g><rect x="93.234" y="50" width="21" height="28" transform="matrix(1,0,0,1,0,0)" fill="rgb(79,192,153)"/></g></svg>